<svg width="60" height="60" viewBox="0 0 60 60" fill="none" xmlns="http://www.w3.org/2000/svg">
<path d="M22.878 3.43257C24.0114 2.94631 25.1441 2.45846 26.2783 1.97437C27.0443 1.64744 27.8124 1.32581 28.6167 1.05237C28.3923 1.24807 28.1371 1.40753 27.8674 1.53459C27.5621 1.67845 27.388 1.85494 27.6843 2.15739C28.5952 3.08695 29.5176 4.00448 30.4322 4.93014C32.5993 7.12339 34.7671 9.31592 36.9293 11.5142C38.0342 12.6375 39.1362 13.7642 40.2244 14.9045C41.4722 16.2123 42.7033 17.5369 43.8687 18.7766C44.1553 18.7766 44.3487 18.7766 44.5422 18.7766C43.6689 19.1613 42.7936 19.5414 41.9229 19.9322C40.9235 20.3808 39.9292 20.8414 38.9293 21.2887C38.8468 21.3256 38.7381 21.3005 38.5668 21.2845C38.2672 21.3192 38.0389 21.3617 37.8181 21.43C37.197 21.6219 36.6017 21.8782 36.1284 21.0914C35.8908 20.6965 35.4862 20.4079 35.1579 20.0705C34.2547 19.1423 33.3521 18.2133 32.4487 17.2851C31.777 16.5951 31.1048 15.9056 30.4323 15.2164C29.7486 14.5157 29.0645 13.8154 28.38 13.1156C27.7084 12.4289 27.0371 11.7417 26.3635 11.057C25.6494 10.3313 24.9283 9.61285 24.2188 8.88241C23.5641 8.20833 22.9363 7.50588 22.2679 6.84681C21.6419 6.22961 20.9782 5.65291 20.3311 5.05839C20.3958 5.00917 20.4605 4.95994 20.5252 4.91072C20.6096 4.73177 20.6941 4.55283 20.7785 4.37388C20.7785 4.37388 20.7855 4.37285 20.8296 4.38421C21.4202 4.1548 21.9666 3.91403 22.5131 3.67326C22.5131 3.67326 22.5311 3.63579 22.5847 3.62906C22.7182 3.55908 22.7981 3.49582 22.878 3.43257Z" fill="#0848A0"/>
<path d="M20.7549 4.37695C20.694 4.55259 20.6096 4.73153 20.5252 4.91048C20.4605 4.9597 20.3957 5.00892 20.331 5.05815C20.9781 5.65267 21.6419 6.22937 22.2679 6.84657C22.9363 7.50564 23.5641 8.20809 24.2188 8.88217C24.9283 9.61261 25.6494 10.331 26.3634 11.0568C27.037 11.7415 27.7083 12.4286 28.38 13.1153C29.0645 13.8151 29.7485 14.5155 30.4322 15.2161C31.1048 15.9053 31.777 16.5948 32.4487 17.2849C33.3521 18.213 34.2546 19.142 35.1579 20.0703C35.4862 20.4077 35.8908 20.6962 36.1283 21.0911C36.6016 21.8779 37.197 21.6217 37.8181 21.4297C38.0389 21.3615 38.2672 21.3189 38.5206 21.2895C37.9619 21.5945 37.3829 21.8957 36.785 22.1495C36.0709 22.4527 35.3405 22.7155 34.5504 22.983C34.1838 23.133 33.884 23.2958 33.5841 23.4585C33.5841 23.4585 33.5534 23.4773 33.4867 23.4662C32.8007 23.6961 32.1893 23.9637 31.5582 24.1658C31.2839 24.2536 30.9439 24.2892 30.6775 24.2038C30.1408 24.0319 29.634 23.761 29.1172 23.4861C28.8217 23.0834 28.546 22.7028 28.222 22.3722C27.3537 21.4861 26.4459 20.6404 25.5894 19.7426C24.7889 18.9033 24.0583 17.993 23.2536 17.1583C22.0106 15.869 20.7372 14.6106 19.4642 13.3524C18.5696 12.4681 17.6415 11.6197 16.7531 10.7291C16.2134 10.1881 15.71 9.60731 15.2106 9.02594C14.7772 8.52139 14.3724 7.99088 13.9843 7.44411C14.4675 7.20575 14.9276 7.00801 15.3735 6.78075C15.7971 6.56486 16.2058 6.3181 16.621 6.0849C16.621 6.0849 16.6217 6.07638 16.676 6.08959C17.3306 5.85279 17.931 5.60277 18.5315 5.35276C18.5315 5.35276 18.5374 5.33196 18.5917 5.32936C19.3267 5.01812 20.0073 4.70947 20.688 4.40081C20.688 4.40081 20.7312 4.38026 20.7549 4.37695Z" fill="#0848A0"/>
<path d="M44.5792 18.7703C44.3488 18.776 44.1553 18.776 43.8687 18.776C42.7033 17.5363 41.4722 16.2117 40.2244 14.904C39.1362 13.7636 38.0343 12.637 36.9293 11.5137C34.7671 9.31538 32.5993 7.12285 30.4323 4.92961C29.5176 4.00394 28.5952 3.08641 27.6844 2.15685C27.388 1.8544 27.5621 1.67792 27.8674 1.53405C28.1371 1.40699 28.3923 1.24754 28.6608 1.06047C29.2951 0.748063 29.9803 0.564949 30.5312 0.179018C30.9605 -0.121708 31.2641 0.0156458 31.6126 0.162759C32.7178 0.629255 33.8145 1.11715 34.9148 1.59593C36.4269 2.25389 37.9394 2.91108 39.4251 3.60538C38.8625 3.48171 38.3264 3.32124 37.7904 3.16077C37.758 3.2231 37.7256 3.28543 37.6932 3.34776C37.8303 3.52381 37.9531 3.71439 38.1067 3.87359C39.1892 4.99558 40.2781 6.11111 41.365 7.2287C44.0417 9.98105 46.7279 12.7237 49.3861 15.4947C49.8615 15.9903 50.267 16.3935 50.9562 15.9057C51.0509 15.8387 51.2213 15.8849 51.3567 15.8786C50.829 16.1169 50.3013 16.3552 49.7051 16.5889C48.8868 16.9027 48.137 17.221 47.3871 17.5394C46.8242 17.7862 46.2613 18.0331 45.6047 18.28C45.158 18.2584 44.846 18.3062 44.7643 18.7449C44.7149 18.7515 44.6656 18.758 44.5792 18.7703Z" fill="#0848A0"/>
<path d="M13.955 7.47186C14.3724 7.9909 14.7772 8.52141 15.2107 9.02597C15.71 9.60733 16.2135 10.1881 16.7531 10.7291C17.6415 11.6197 18.5697 12.4682 19.4643 13.3524C20.7373 14.6106 22.0107 15.8691 23.2536 17.1583C24.0584 17.9931 24.7889 18.9033 25.5895 19.7426C26.4459 20.6404 27.3538 21.4861 28.2221 22.3723C28.546 22.7029 28.8217 23.0834 29.0701 23.4743C28.8919 23.4952 28.763 23.483 28.6342 23.4707C28.6342 23.4707 28.5992 23.4778 28.5695 23.4295C28.023 23.1694 27.5062 22.9575 26.9894 22.7457C26.9894 22.7457 26.9522 22.753 26.9129 22.7087C26.1282 22.3693 25.3829 22.074 24.6375 21.7788C24.6375 21.7788 24.6032 21.7864 24.5755 21.7382C24.3127 21.584 24.0775 21.4779 23.8075 21.3425C23.5129 21.2267 23.2531 21.14 22.9934 21.0534C22.9934 21.0534 22.957 21.0616 22.9179 21.0175C21.9064 20.5307 20.9398 20.0734 19.9581 19.6533C19.6263 19.5113 19.2564 19.4633 18.9039 19.3724C18.9039 19.3724 18.9115 19.3686 18.9077 19.3307C18.5154 19.1161 18.1268 18.9393 17.709 18.7568C17.6601 18.7542 17.6404 18.7573 17.5954 18.7516C17.57 18.7428 17.5201 18.7229 17.4939 18.692C16.7735 18.3384 16.0794 18.0157 15.3814 17.6499C14.8316 17.0653 14.2908 16.518 13.7382 15.9837C13.1727 15.4368 12.5821 14.9169 12.0267 14.3597C10.9422 13.2717 9.86348 12.177 8.80689 11.0606C8.48957 10.7253 8.25346 10.3087 7.99426 9.90172C8.03811 9.84562 8.06785 9.81718 8.14268 9.79026C8.81309 9.55555 9.44503 9.33583 10.0604 9.07476C10.297 8.97439 10.4958 8.77986 10.7118 8.62824C10.7118 8.62824 10.7377 8.6097 10.8023 8.62083C11.4719 8.34016 12.0768 8.04836 12.6817 7.75655C12.6817 7.75655 12.6832 7.76537 12.7269 7.77671C13.1653 7.68265 13.5601 7.57725 13.955 7.47186Z" fill="#0848A0"/>
<path d="M51.355 15.8763C51.2212 15.8846 51.0508 15.8384 50.9561 15.9054C50.2669 16.3933 49.8615 15.9901 49.386 15.4945C46.7278 12.7234 44.0416 9.9808 41.3649 7.22846C40.2781 6.11086 39.1892 4.99533 38.1066 3.87334C37.953 3.71415 37.8302 3.52356 37.6931 3.34751C37.7255 3.28518 37.7579 3.22285 37.7903 3.16052C38.3264 3.32099 38.8624 3.48146 39.4439 3.64439C39.4893 3.64685 39.484 3.65041 39.4905 3.69084C40.0036 3.90482 40.5102 4.07836 41.0169 4.25191C41.0169 4.25191 41.0078 4.25778 41.0268 4.2923C41.1954 4.38339 41.3449 4.43996 41.4945 4.49653C41.4945 4.49653 41.5435 4.50288 41.5771 4.55142C41.7276 4.64661 41.8446 4.69327 41.9616 4.73992C47.9111 7.19759 53.8607 9.65526 60 12.1913C59.42 12.5021 59.0023 12.7644 58.5563 12.9576C57.322 13.4923 56.078 14.0038 54.8336 14.5134C54.1007 14.8135 53.3596 15.0925 52.5515 15.3565C52.1064 15.5131 51.7319 15.6944 51.3575 15.8757C51.3575 15.8757 51.3535 15.8742 51.355 15.8763Z" fill="#0848A0"/>
<path d="M36.6659 37.7514C36.6659 37.7514 36.7008 37.7316 36.7735 37.7428C37.2237 37.688 37.6133 37.6623 37.9752 37.5454C38.3783 37.4152 38.7562 37.2021 39.145 37.0251C39.1863 37.0181 39.2276 37.0111 39.3336 37.0308C40.3634 36.7658 41.3287 36.4741 42.2939 36.1823C42.2939 36.1823 42.3371 36.1615 42.4109 36.1718C42.9533 36.0351 43.0667 36.3825 43.2324 36.7127C43.4896 37.2253 43.7901 37.7149 44.0723 38.2142C44.0723 38.2142 44.0627 38.2154 44.0559 38.256C44.3247 38.7454 44.6004 39.1944 44.876 39.6433C45.018 39.7698 45.1601 39.8964 45.3482 40.0556C45.4086 40.1106 45.4278 40.1273 45.4517 40.1382C45.4517 40.1382 45.474 40.1938 45.4896 40.2523C45.5366 40.3387 45.5681 40.3666 45.5995 40.3945C45.5995 40.3945 45.5883 40.3921 45.5987 40.4183C45.645 40.4672 45.6808 40.4899 45.7167 40.5126C45.7167 40.5126 45.7077 40.5107 45.7021 40.5503C45.899 40.7636 46.1015 40.9373 46.3039 41.1111C46.3039 41.1111 46.2957 41.117 46.2962 41.1499C46.3384 41.1997 46.3801 41.2166 46.4219 41.2335C46.4219 41.2335 46.4129 41.2373 46.4136 41.2705C46.4559 41.3205 46.4977 41.3374 46.5394 41.3544C46.5394 41.3544 46.5298 41.3579 46.5204 41.3971C46.7258 41.614 46.9405 41.7916 47.1553 41.9693C47.1553 41.9693 47.1764 41.959 47.1956 42.0093C47.5092 42.2715 47.8035 42.4833 48.0979 42.6952C48.0979 42.6952 48.119 42.6841 48.1417 42.7327C48.6426 43.0307 49.1206 43.2801 49.5987 43.5294C49.5987 43.5294 49.5885 43.5354 49.6074 43.5587C49.6128 43.6749 49.6308 43.82 49.5807 43.8518C49.3475 43.9998 49.0956 44.1164 48.8503 44.2442C48.812 44.2508 48.7737 44.2574 48.6798 44.2355C48.4764 44.2581 48.3285 44.3092 48.1806 44.3603C48.1806 44.3603 48.1371 44.3815 48.0615 44.3731C46.6833 44.7017 45.3778 45.0275 44.0794 45.3809C43.5074 45.5365 42.9498 45.7481 42.3384 45.9362C41.4076 46.1646 40.5267 46.4018 39.6393 46.6101C39.4095 46.6641 39.1053 46.7215 38.9295 46.6141C38.4845 46.3422 38.1035 45.9619 37.6758 45.6562C37.4334 45.483 37.1494 45.3713 36.8842 45.232C36.8842 45.232 36.8923 45.2262 36.8917 45.1934C36.8494 45.1435 36.8078 45.1263 36.7661 45.1092C36.7661 45.1092 36.7755 45.1061 36.7844 45.067C36.6078 44.7515 36.4315 44.4681 36.2349 44.2005C35.8764 43.7124 35.5058 43.2338 35.1403 42.7512C35.1403 42.7512 35.1317 42.749 35.1432 42.6942C34.8778 41.8449 34.601 41.0505 34.3242 40.256C34.3242 40.256 34.3053 40.2242 34.3179 40.1482C34.2437 39.6089 34.1568 39.1456 34.0699 38.6823C34.0699 38.6823 34.0719 38.6405 34.1173 38.6107C34.9971 38.3044 35.8315 38.0279 36.6659 37.7514Z" fill="#0052CC"/>
<path d="M15.6334 43.5509C15.6334 43.5509 15.6669 43.5309 15.7379 43.5415C16.5751 43.3096 17.3414 43.0672 18.1076 42.8247C18.1076 42.8247 18.1379 42.8055 18.2078 42.8172C18.5625 42.7763 18.8523 42.7433 19.131 42.6674C19.9718 42.4387 20.805 42.1797 21.6494 41.9667C21.8091 41.9264 22.0064 42.0433 22.1864 42.0877C22.1864 42.0877 22.2067 42.1274 22.1964 42.2069C22.1941 42.5062 22.1743 42.7316 22.215 42.9448C22.3655 43.7333 22.3439 44.5783 22.8939 45.2424C22.8939 45.2424 22.9127 45.2754 22.9034 45.3438C23.1697 45.9282 23.4454 46.4441 23.721 46.9601C23.721 46.9601 23.7344 46.9735 23.7223 47.0325C23.9851 48.0934 24.613 48.8292 25.3921 49.451C25.3921 49.451 25.379 49.4533 25.3772 49.4902C25.5375 49.7808 25.6995 50.0344 25.8687 50.2994C25.2209 50.5402 24.5889 50.7752 23.957 51.0101C23.957 51.0101 23.9232 51.0303 23.852 51.0204C23.6086 51.0411 23.4331 51.0586 23.2648 51.1042C21.5788 51.5611 19.8941 52.0226 18.2043 52.4395C18.1147 52.2415 18.0584 52.057 17.9401 51.937C17.4027 51.3921 16.833 50.8805 16.3028 50.3286C15.543 49.5377 14.8209 48.7083 14.0575 47.9212C13.3804 47.2231 12.6527 46.5766 11.9802 45.8741C11.7012 45.5826 11.5077 45.2045 11.3206 44.8593C11.7347 44.7001 12.1036 44.5474 12.4726 44.3947C12.4726 44.3947 12.4984 44.3759 12.5667 44.3895C13.6344 44.1191 14.6339 43.835 15.6334 43.5509Z" fill="#0052CC"/>
<path d="M20.3649 21.9115C20.3649 21.9115 20.3874 21.9003 20.4009 21.9375C20.4143 21.9746 20.4405 22.0249 20.4457 22.0533C20.4597 22.1188 20.4677 22.1559 20.4678 22.2407C20.5102 22.4097 20.5305 22.5598 20.6132 22.6484C21.6061 23.7121 22.6076 24.7673 23.6085 25.8232C23.9285 26.1607 24.2484 26.4986 24.5766 26.8276C25.2697 27.5226 25.9735 28.2065 26.663 28.9055C27.159 29.4083 27.6455 29.9214 28.124 30.4419C28.6783 31.0447 29.2191 31.6606 29.7422 32.3014C29.5977 32.3945 29.4832 32.4827 29.3551 32.5161C27.7557 32.933 26.1543 33.342 24.5537 33.701C24.6344 32.7474 24.0338 32.3076 23.4141 31.8883C23.1098 31.6824 22.7497 31.5463 22.485 31.2992C21.8862 30.7404 21.337 30.1259 20.7568 29.5456C19.7195 28.5081 18.6593 27.4944 17.6359 26.4428C16.4076 25.1806 15.2133 23.8836 13.9915 22.6146C13.6995 22.3112 13.3572 22.0589 13.0339 21.7265C13.0297 20.8109 13.0297 19.9517 13.0297 19.0301C13.4079 19.1616 13.7185 19.2671 14.0275 19.3774C14.8113 19.6571 15.5945 19.9389 16.378 20.2199C16.378 20.2199 16.3892 20.2122 16.4079 20.2595C17.2961 20.6722 18.1657 21.0375 19.0601 21.437C19.5116 21.6179 19.9382 21.7647 20.3649 21.9115Z" fill="#0052CC"/>
<path d="M35.9447 47.7465C35.9447 47.7465 35.9095 47.7665 35.8379 47.7558C35.5755 47.7839 35.3829 47.8153 35.1941 47.863C34.1569 48.1252 33.1207 48.3914 32.0787 48.6103C31.9795 48.3936 31.9172 48.1905 31.7871 48.0574C31.0263 47.2791 30.2415 46.5257 29.4809 45.7471C28.8172 45.0676 28.1772 44.3635 27.5223 43.6747C26.7793 42.8931 26.0517 42.094 25.2769 41.347C24.8931 40.977 24.4184 40.7066 23.9807 40.3396C23.9819 40.0142 23.9873 39.7403 24.0287 39.4412C24.1784 38.8926 24.2919 38.3693 24.4291 37.8067C24.5286 37.4581 24.6046 37.1488 24.6805 36.8395C24.6805 36.8395 24.6701 36.8212 24.7126 36.7895C24.8201 36.6041 24.8851 36.4504 24.9848 36.2811C25.107 36.0774 25.1943 35.8893 25.3247 35.6908C25.7242 35.5689 26.0805 35.4575 26.4373 35.3877C26.9298 36.0373 27.3823 36.6855 27.9216 37.2452C29.2218 38.5947 30.5748 39.8904 31.8767 41.2383C32.1298 41.5003 32.3294 41.6355 32.6718 41.5185C32.7565 41.6917 32.8308 41.8266 32.9003 42.0085C33.1475 42.7148 33.3838 43.3812 33.663 44.0279C33.728 44.1782 33.9394 44.2617 34.0834 44.376C34.0834 44.376 34.0736 44.3798 34.0649 44.4196C34.8026 45.4677 35.549 46.4758 36.3456 47.5517C36.3904 47.425 36.3893 47.451 36.3769 47.4594C36.2339 47.5566 36.0891 47.6512 35.9447 47.7465Z" fill="#0052CC"/>
<path d="M41.7936 21.9203C42.2827 21.6865 42.7671 21.4416 43.2619 21.2214C44.3045 20.7573 45.355 20.3121 46.3975 19.848C47.1376 19.5184 47.8684 19.1666 48.6075 18.8345C48.7248 18.7817 48.8639 18.7802 49.0493 18.816C49.1115 21.4705 49.1217 24.0641 49.113 26.6576C49.1125 26.8195 48.9643 26.981 48.8393 27.1383C48.4434 27.2287 48.0856 27.3017 47.7451 27.4255C47.4954 27.5162 47.2686 27.6735 47.0316 27.8011C46.4253 27.9603 45.819 28.1196 45.1623 28.2535C45.06 28.1997 45.008 28.1712 44.9559 28.1428C44.9757 28.2028 44.9955 28.2629 45.0152 28.323C44.9587 28.3594 44.9021 28.3959 44.7994 28.3835C44.4351 28.1172 44.2115 28.1998 44.0756 28.5607C44.0756 28.5607 44.0675 28.5606 44.0219 28.5464C43.6915 28.5784 43.4066 28.6247 43.1168 28.6284C42.3478 27.7269 41.5881 26.8639 40.8187 26.0101C40.0467 25.1533 39.265 24.3057 38.5219 23.4254C38.7499 23.3045 38.9423 23.209 39.1377 23.1204C40.0225 22.7193 40.9082 22.3201 41.7936 21.9203Z" fill="#0052CC"/>
<path d="M50.7454 28.6709C51.9397 27.8994 53.2196 27.9357 54.5288 28.2467C54.6213 28.2687 54.7144 28.2882 54.8624 28.3562C55.0201 28.4476 55.1225 28.4916 55.225 28.5356C55.225 28.5356 55.2715 28.54 55.3132 28.5886C55.7922 28.8918 56.2296 29.1464 56.6669 29.401C56.7012 29.3931 56.7269 29.405 56.7509 29.5061C56.8377 29.5944 56.9176 29.6129 56.9976 29.6315C56.9976 29.6315 56.9892 29.6362 56.9789 29.6742C57.1743 29.8869 57.38 30.0617 57.5857 30.2365C57.5857 30.2365 57.5776 30.2409 57.5662 30.2786C57.6435 30.4118 57.7321 30.5073 57.8207 30.6027C57.8207 30.6027 57.8126 30.6032 57.8075 30.6432C58.074 31.1103 58.3454 31.5374 58.6168 31.9645C58.9761 33.0794 59.3353 34.1944 59.6504 35.3917C59.6326 36.1181 59.659 36.7622 59.6854 37.4063C59.648 37.6179 59.6105 37.8296 59.5438 38.1025C59.5081 38.2013 59.4863 38.2209 59.4492 38.2228C59.4492 38.2228 59.457 38.209 59.4285 38.2354C59.1907 38.6908 58.9814 39.1198 58.7299 39.5438C58.6031 39.4919 58.5038 39.4609 58.4361 39.3953C57.7569 38.7384 57.07 38.089 56.4108 37.4113C55.7101 36.6908 55.0373 35.9416 54.3517 35.2056C53.6494 34.4518 52.9581 33.6866 52.2404 32.9486C51.3585 32.0418 50.4479 31.1644 49.5667 30.2568C49.4398 30.1261 49.408 29.8978 49.3505 29.6802C49.8277 29.3208 50.2865 28.9959 50.7454 28.6709Z" fill="#0052CC"/>
<path d="M29.7656 32.2711C29.219 31.6608 28.6782 31.0449 28.1239 30.4421C27.6454 29.9216 27.1589 29.4085 26.6629 28.9057C25.9734 28.2067 25.2696 27.5228 24.5765 26.8278C24.2483 26.4987 23.9284 26.1609 23.6084 25.8234C22.6075 24.7675 21.606 23.7123 20.6131 22.6486C20.5304 22.56 20.5101 22.4099 20.5124 22.2526C20.7186 22.2286 20.8732 22.2404 21.0279 22.2523C21.0525 22.2563 21.0772 22.2603 21.1461 22.3149C21.9996 22.691 22.8089 23.0166 23.6181 23.3421C23.7922 23.4241 23.9662 23.506 24.2005 23.6366C25.0781 23.9803 25.8954 24.2755 26.7127 24.5707C26.7127 24.5707 26.7327 24.5582 26.7535 24.6088C27.0977 24.8254 27.4109 25.0182 27.7464 25.1518C28.6092 25.4953 29.4819 25.8126 30.3507 26.1404C30.3507 26.1404 30.3803 26.1301 30.4164 26.1765C30.8246 26.4411 31.1984 26.6041 31.5872 26.2584C31.7979 26.1344 32.0085 26.0105 32.2596 25.9246C32.2324 26.1642 32.1648 26.3657 32.0979 26.565C32.3375 26.7411 32.5628 26.8669 32.7398 27.0437C33.4054 27.7086 34.0675 28.3781 34.7068 29.0695C35.1563 29.5556 35.5666 30.0801 35.9701 30.6167C35.6199 30.7895 35.294 30.9328 34.9681 31.0762C34.9681 31.0762 34.9585 31.0889 34.898 31.0741C34.6278 31.0918 34.4142 31.1087 34.2087 31.1596C32.7268 31.5262 31.2465 31.8997 29.7656 32.2711Z" fill="#0052CC"/>
<path d="M11.2753 44.8658C11.5077 45.2045 11.7012 45.5826 11.9802 45.8741C12.6527 46.5766 13.3803 47.2231 14.0575 47.9212C14.8209 48.7083 15.5429 49.5377 16.3027 50.3286C16.8329 50.8805 17.4027 51.3921 17.9401 51.937C18.0584 52.057 18.1147 52.2415 18.1732 52.4724C17.64 52.6766 17.126 52.7811 16.6273 52.9373C15.0466 53.4324 13.4989 53.4824 12.0088 52.6273C11.5954 52.39 11.1952 52.1286 10.7889 51.8783C10.7889 51.8783 10.7995 51.8777 10.8052 51.8383C10.6931 51.6261 10.5942 51.4345 10.4536 51.2841C10.0909 50.8964 9.65709 50.5673 9.34824 50.1409C8.85384 49.4582 8.44298 48.7121 7.98248 48.0026C7.90775 47.8875 7.75913 47.8231 7.64466 47.7352C7.64466 47.7352 7.62673 47.7112 7.63783 47.6457C7.50543 47.0871 7.36195 46.594 7.1958 46.023C8.56444 45.6348 9.91987 45.2503 11.2753 44.8658Z" fill="#0052CC"/>
<path d="M35.9944 30.5875C35.5666 30.0801 35.1563 29.5557 34.7069 29.0696C34.0676 28.3782 33.4054 27.7087 32.7398 27.0438C32.5628 26.867 32.3376 26.7412 32.0979 26.5651C32.1648 26.3658 32.2324 26.1643 32.303 25.9189C32.651 25.7459 32.996 25.6167 33.4104 25.4481C34.1019 25.185 34.7319 24.9814 35.3427 24.7287C35.6332 24.6085 35.8871 24.3946 36.1576 24.2232C36.1816 24.2152 36.2055 24.2073 36.3135 24.1968C36.8143 23.999 37.231 23.8037 37.6477 23.6084C37.6477 23.6084 37.6555 23.5967 37.7107 23.6084C38.0063 23.5647 38.2469 23.5093 38.4875 23.4539C39.2649 24.3056 40.0466 25.1532 40.8186 26.01C41.588 26.8638 42.3477 27.7268 43.0745 28.6447C41.6868 29.0694 40.3342 29.4282 38.9874 29.8081C38.7856 29.865 38.6103 30.0211 38.4228 30.1314C38.4228 30.1314 38.4218 30.1231 38.3765 30.1106C37.9486 30.2179 37.5659 30.3377 37.1832 30.4575C37.1519 30.4668 37.1205 30.4761 37.0053 30.4835C36.6124 30.5168 36.3034 30.5521 35.9944 30.5875Z" fill="#0052CC"/>
<path d="M49.332 29.7147C49.4078 29.8978 49.4397 30.1261 49.5666 30.2569C50.4478 31.1644 51.3584 32.0418 52.2403 32.9487C52.958 33.6867 53.6492 34.4519 54.3515 35.2057C55.0372 35.9417 55.71 36.6909 56.4107 37.4113C57.0699 38.0891 57.7567 38.7385 58.4359 39.3954C58.5037 39.4609 58.603 39.4919 58.7218 39.5867C58.7165 39.7693 58.677 39.9042 58.6375 40.0391C58.6375 40.0391 58.6352 40.0311 58.606 40.0364C58.5594 40.0821 58.5421 40.1224 58.5247 40.1627C58.0153 41.0373 57.183 41.5229 56.3759 42.0352C56.2869 42.0916 56.1513 42.0703 55.9492 42.0862C55.7701 42.1713 55.6792 42.2553 55.5883 42.3393C55.5883 42.3393 55.5773 42.328 55.5458 42.3139C55.0901 42.3175 54.7898 42.1098 54.5051 41.7972C54.0724 41.3221 53.5638 40.918 53.1481 40.4292C52.9016 40.1395 52.3928 39.9903 52.5684 39.4267C53.209 39.2465 53.8097 39.094 54.3988 38.9035C54.5726 38.8474 54.7137 38.6841 54.8698 38.5699C54.8698 38.5699 54.8717 38.5782 54.9121 38.5836C55.3868 38.1647 55.4505 37.6568 55.1216 37.243C54.8367 36.8846 54.369 36.8275 53.9851 37.104C53.1549 37.3522 52.3339 37.351 51.4654 36.9766C51.3744 36.9344 51.3528 36.9132 51.3404 36.8822C51.3404 36.8822 51.3539 36.8894 51.3381 36.8564C50.8576 36.565 50.3929 36.3066 49.9282 36.0482C49.9282 36.0482 49.9358 36.0433 49.9368 36.0094C49.8953 35.9586 49.8529 35.9417 49.8105 35.9249C49.8105 35.9249 49.8185 35.9229 49.8169 35.8901C49.7746 35.8392 49.7339 35.8211 49.6932 35.803C49.6932 35.803 49.7013 35.8024 49.7074 35.7624C49.3037 34.9574 48.8472 34.2143 48.4953 33.4221C48.007 32.3228 48.4495 30.5169 49.332 29.7147Z" fill="#0052CC"/>
<path d="M39.2674 48.6242C39.3072 48.6175 39.347 48.6108 39.4489 48.6336C39.9477 48.5534 40.1436 48.7168 40.2224 49.1878C40.2813 49.5393 40.494 49.8636 40.6382 50.2C40.645 50.242 40.6518 50.2841 40.6288 50.3907C41.0714 52.3677 41.5398 54.2811 42.0242 56.1903C42.0612 56.3361 42.2116 56.4515 42.3094 56.5811C42.3094 56.5811 42.2993 56.5842 42.2858 56.6243C42.281 56.758 42.2897 56.8517 42.2775 56.9616C42.2567 56.9779 42.2337 57.0263 42.1853 57.0147C41.138 56.562 40.143 56.1111 39.1387 55.6831C38.3868 55.3626 37.6506 54.9392 36.7751 55.119C36.0033 54.258 35.2468 53.4322 34.4725 52.6244C33.8614 51.9869 33.2283 51.3718 32.6389 50.7184C32.8473 50.6035 33.0135 50.4844 33.1974 50.4357C34.8348 50.0017 36.4789 49.594 38.1123 49.1449C38.5138 49.0345 38.8832 48.801 39.2674 48.6242Z" fill="#0052CC"/>
<path d="M49.4501 37.8712C49.5704 37.9589 49.6906 38.0466 49.8688 38.1764C49.6598 38.2882 49.4986 38.3744 49.262 38.4369C48.5429 38.5589 47.8923 38.6793 47.2579 38.8597C46.8678 38.9706 46.6444 38.8408 46.4199 38.5302C46.211 38.2412 45.9393 38.0001 45.6953 37.7379C45.6953 37.7379 45.7048 37.7326 45.6923 37.7186C45.666 37.6733 45.6433 37.652 45.6118 37.6406C45.3285 37.0143 45.0452 36.388 44.7783 35.6892C44.658 35.159 44.7963 34.5571 44.1701 34.3556C44.1701 34.3556 44.1777 34.3517 44.1768 34.3187C44.1348 34.2681 44.0937 34.2505 44.0526 34.2329C44.0526 34.2329 44.0605 34.2312 44.06 34.1904C43.7673 34.0979 43.4713 33.989 43.1838 34.0093C42.8248 34.0346 42.4728 34.1663 42.0693 34.2467C41.9228 34.3622 41.8249 34.4831 41.7269 34.604C41.7269 34.604 41.7218 34.6046 41.6799 34.5858C41.0768 34.6665 40.5155 34.7661 39.9491 34.8217C39.4192 34.1544 38.8886 33.5362 38.373 32.905C38.205 32.6995 38.076 32.4604 37.959 32.2163C38.0998 32.1141 38.2109 32.0322 38.3219 31.9504C38.3219 31.9504 38.3513 31.9313 38.4206 31.9441C39.8301 31.6129 41.1741 31.2831 42.5087 30.9172C43.001 30.7823 43.4712 30.5623 43.9514 30.3812C43.9514 30.3812 43.9885 30.3614 44.0577 30.3738C44.332 30.3018 44.5373 30.2173 44.7425 30.1328C45.2449 30.0088 45.7473 29.8848 46.3278 29.7841C46.5487 29.7963 46.6914 29.7851 46.8269 29.7744C46.7208 30.3764 46.6238 30.9267 46.5268 31.4771C46.5116 32.4197 46.5012 33.3618 46.8654 34.327C46.9793 34.6665 47.1119 34.9292 47.2445 35.192C47.2445 35.192 47.2361 35.1949 47.2259 35.2361C47.6143 35.9036 47.9737 36.5626 48.429 37.1418C48.6441 37.4155 49.0431 37.5364 49.3588 37.7266C49.3588 37.7266 49.3514 37.734 49.3454 37.7636C49.3763 37.8193 49.4132 37.8453 49.4501 37.8712Z" fill="#0052CC"/>
<path d="M22.904 36.6852C22.904 36.6852 22.9134 36.7166 22.8679 36.7529C22.3164 37.6074 22.213 38.5251 22.1974 39.4645C22.1974 39.4645 22.2067 39.5019 22.1691 39.5487C21.8722 39.7756 21.613 39.9558 21.3537 40.136C21.3537 40.136 21.3315 40.1548 21.2642 40.1405C20.1949 40.411 19.193 40.6959 18.1911 40.9807C18.1911 40.9807 18.1617 41.0001 18.0928 40.9874C16.1228 41.4735 14.2223 41.9746 12.3204 42.4697C11.6186 42.6524 10.9133 42.821 10.2064 42.9969C9.93319 41.9895 10.3599 41.2769 10.6826 40.5334C10.9385 39.9439 11.3958 39.6128 11.9529 39.3988C12.6744 39.1217 13.402 38.8611 14.1269 38.5933C14.1269 38.5933 14.1456 38.5752 14.2112 38.5896C15.2783 38.3193 16.2799 38.0346 17.2815 37.7499C17.2815 37.7499 17.3146 37.7303 17.3863 37.7406C19.251 37.2942 21.0441 36.8376 22.8561 36.3762C22.8682 36.4542 22.8861 36.5697 22.904 36.6852Z" fill="#0052CC"/>
<path d="M2.48713 14.4142C2.48713 14.4142 2.53091 14.4096 2.57397 14.4543C2.73497 14.569 2.84656 14.6826 2.97189 14.7019C3.66227 14.8083 3.79398 15.2317 3.78023 15.8936C3.73805 17.9239 3.76762 19.9558 3.75784 21.987C3.75611 22.3455 3.79286 22.637 4.24386 22.6977C4.30913 22.769 4.34724 22.8166 4.39447 22.8509C5.51163 23.6634 5.97466 24.7072 5.5595 26.1135C5.48386 26.3697 5.61351 26.69 5.64357 27.0365C5.51327 28.021 5.38778 28.9497 5.22307 29.8724C4.66412 29.385 4.12857 28.9203 3.62854 28.4182C2.96333 27.7503 2.34411 27.0333 1.66991 26.3756C1.22164 25.9382 0.711799 25.5676 0.226318 25.1175C0.348134 24.6604 0.443344 24.2397 0.60706 23.8495C0.752561 23.5027 0.97403 23.1896 1.16197 22.8617C1.16197 22.8617 1.16897 22.8707 1.20903 22.8817C1.53465 22.724 1.8202 22.5553 2.1118 22.3304C2.11753 19.6598 2.11721 17.0455 2.16293 14.4256C2.30169 14.4181 2.39441 14.4162 2.48713 14.4142Z" fill="#0848A0"/>
<path d="M23.9848 40.391C24.4184 40.7065 24.8931 40.9769 25.2769 41.3469C26.0518 42.0939 26.7793 42.8929 27.5224 43.6745C28.1772 44.3634 28.8172 45.0674 29.481 45.747C30.2415 46.5255 31.0263 47.279 31.7871 48.0573C31.9172 48.1904 31.9795 48.3935 32.0459 48.6368C31.4832 48.9126 30.9479 49.1158 30.4125 49.319C30.4125 49.319 30.3836 49.3384 30.3137 49.3246C29.4413 49.3718 28.6429 49.7977 27.8344 49.3399C27.8344 49.3399 27.843 49.3362 27.8488 49.2963C27.307 48.745 26.7593 48.2337 26.2117 47.7225C26.2117 47.7225 26.1941 47.7072 26.2048 47.6486C26.0111 47.3682 25.8067 47.1462 25.6022 46.9243C25.6022 46.9243 25.6093 46.9185 25.609 46.8857C25.5673 46.8359 25.526 46.8189 25.4846 46.802C25.4846 46.802 25.4937 46.7989 25.5039 46.7562C25.3861 46.3803 25.2862 46.0319 25.1254 45.7163C24.2742 44.0457 23.8728 42.2776 23.9848 40.391Z" fill="#0052CC"/>
<path d="M7.98005 9.92871C8.25336 10.308 8.48946 10.7246 8.80679 11.0599C9.86338 12.1764 10.9421 13.271 12.0266 14.359C12.582 14.9163 13.1726 15.4361 13.7381 15.983C14.2907 16.5174 14.8315 17.0646 15.3297 17.647C15.1444 17.6807 15.0068 17.6737 14.8693 17.6667C14.8693 17.6667 14.8557 17.6764 14.8367 17.628C14.0992 17.2486 13.3895 16.8947 12.6592 16.5938C12.0771 16.354 11.4698 16.1789 10.8736 15.9751C10.8736 15.9751 10.8603 15.9844 10.8422 15.9357C10.293 15.6747 9.76189 15.4624 9.23076 15.2502C9.23076 15.2502 9.21409 15.262 9.19306 15.2125C8.45552 14.8335 7.74767 14.4818 7.01975 14.1815C6.43745 13.9413 5.83074 13.7637 5.23487 13.5584C5.23487 13.5584 5.21879 13.5698 5.19885 13.5205C4.44335 13.1399 3.70969 12.8042 2.97109 12.4804C2.75511 12.3857 2.48332 12.3486 2.7211 12.0101C2.7211 12.0101 2.7457 11.9913 2.80988 12.0046C3.6051 11.6934 4.33615 11.3689 5.0672 11.0444C5.0672 11.0444 5.09606 11.0253 5.16143 11.0346C5.72107 10.8025 6.21534 10.5611 6.70961 10.3197C6.70961 10.3197 6.74065 10.3006 6.80649 10.3113C7.24158 10.1909 7.61081 10.0598 7.98005 9.92871Z" fill="#0848A0"/>
<path d="M15.7025 36.0375C15.7025 36.0375 15.6761 36.0464 15.6555 35.9962C15.2522 35.6438 14.8391 35.374 14.4933 35.0322C13.8744 34.4206 13.0386 33.943 13.0339 32.8918C13.0274 31.4446 13.0376 29.9974 13.0831 28.5516C13.4719 28.8488 13.8481 29.115 14.1584 29.4464C14.8433 30.1779 15.4733 30.9644 16.1666 31.687C16.8111 32.3587 17.5359 32.9495 18.1735 33.6275C18.6219 34.1042 18.9835 34.6673 19.3399 35.2028C18.5746 35.433 17.86 35.6821 17.1292 35.8607C16.6662 35.9739 16.1789 35.9822 15.7025 36.0375Z" fill="#0052CC"/>
<path d="M0.229614 25.1666C0.711898 25.5671 1.22174 25.9377 1.67001 26.375C2.34421 27.0327 2.96343 27.7497 3.62863 28.4177C4.12867 28.9198 4.66422 29.3845 5.21289 29.9129C4.70049 30.9652 4.17247 31.9785 3.6122 32.9725C3.33506 33.4642 2.92343 33.482 2.52945 33.0993C2.37963 32.9538 2.18066 32.8619 2.00409 32.7455C2.00409 32.7455 1.98612 32.7252 1.99759 32.6641C1.86492 32.2999 1.71414 31.9999 1.57794 31.6931C1.20044 30.8427 0.657631 30.0223 0.495912 29.1295C0.261671 27.8364 0.304801 26.4902 0.229614 25.1666Z" fill="#0848A0"/>
<path d="M37.9291 32.2365C38.076 32.4603 38.205 32.6994 38.3729 32.905C38.8886 33.5361 39.4191 34.1544 39.9207 34.8467C39.7137 35.0038 39.5299 35.0917 39.346 35.1797C39.346 35.1797 39.3146 35.1987 39.244 35.1868C37.652 35.5472 36.1305 35.9196 34.4972 36.3193C34.5779 35.9975 34.6343 35.7957 34.6785 35.5911C34.7412 35.3003 34.795 35.0075 34.8731 34.6753C35.0145 34.3195 35.1354 34.0042 35.2563 33.6888C35.2563 33.6888 35.2486 33.685 35.2949 33.6758C35.8174 33.3235 35.9108 32.5294 36.694 32.5006C37.1364 32.4172 37.5328 32.3268 37.9291 32.2365Z" fill="#0052CC"/>
<path d="M52.5243 39.4403C52.3928 39.9908 52.9017 40.14 53.1482 40.4298C53.5639 40.9185 54.0725 41.3226 54.5052 41.7977C54.7899 42.1104 55.0902 42.3181 55.5509 42.3208C54.787 42.457 53.9866 42.5728 53.12 42.6365C52.8899 42.5449 52.7277 42.4958 52.5621 42.4676C51.0868 42.2156 49.7172 41.7201 48.5496 40.6722C48.6748 40.5584 48.7721 40.47 48.8695 40.3815C48.8695 40.3815 48.8789 40.3869 48.9172 40.3823C49.1126 40.3112 49.2697 40.2447 49.4267 40.1783C49.4541 40.1693 49.4814 40.1603 49.5766 40.1694C50.4565 39.9388 51.2686 39.6901 52.0806 39.4414C52.0806 39.4414 52.1037 39.423 52.1664 39.4358C52.3275 39.4458 52.4259 39.443 52.5243 39.4403Z" fill="#0052CC"/>
<path d="M13.0406 28.55C13.0376 29.9972 13.0274 31.4444 13.0339 32.8916C13.0387 33.9428 13.8744 34.4204 14.4933 35.032C14.8392 35.3738 15.2523 35.6436 15.6446 35.9872C15.253 35.803 14.8179 35.6229 14.4597 35.34C14.0346 35.0041 13.6394 34.6101 13.3006 34.1831C13.0713 33.8942 12.8217 33.5058 12.8196 33.1604C12.7905 28.4153 12.8027 23.6699 12.8062 18.9246C12.8062 18.8867 12.8256 18.8488 12.8619 18.716C13.3001 18.8515 13.7458 18.964 14.1733 19.1271C14.8755 19.395 15.5664 19.694 16.2594 19.9866C16.2977 20.0028 16.3116 20.0799 16.3574 20.1744C15.5945 19.9393 14.8113 19.6574 14.0275 19.3777C13.7184 19.2675 13.4079 19.1619 13.0297 19.0304C13.0297 19.952 13.0297 20.8112 13.029 21.7833C13.0325 24.1142 13.0366 26.3321 13.0406 28.55Z" fill="#0052CC"/>
<path d="M15.7192 36.0836C16.1789 35.9819 16.6662 35.9737 17.1292 35.8605C17.86 35.6819 18.5745 35.4328 19.3857 35.2047C21.168 34.7151 22.8607 34.2342 24.5533 33.7533C26.1542 33.3422 27.7556 32.9332 29.355 32.5163C29.4831 32.4829 29.5977 32.3948 29.7421 32.3016C31.2465 31.8998 32.7268 31.5263 34.2087 31.1596C34.4143 31.1088 34.6278 31.0919 34.8918 31.0693C34.8624 31.1645 34.7906 31.3039 34.6935 31.3262C33.7589 31.5407 32.8148 31.7129 31.884 31.9423C31.0315 32.1524 30.1934 32.4237 29.3463 32.6578C28.2995 32.947 27.2482 33.2187 26.2023 33.5108C25.2275 33.7831 24.2554 34.0661 23.2853 34.3556C22.1234 34.7024 20.9691 35.0766 19.8037 35.4097C18.9726 35.6473 18.1267 35.8293 17.2913 36.0516C16.9493 36.1425 16.6237 36.3183 16.2787 36.3686C16.1121 36.3928 15.9178 36.2158 15.7192 36.0836Z" fill="#0052CC"/>
<path d="M35.1424 57.685C34.718 58.5179 34.1241 59.2108 33.5227 60.0001C32.816 57.2542 32.1518 54.6732 31.5269 52.0436C31.6043 51.9959 31.6425 51.9965 31.7066 52.0369C32.3608 54.4861 32.9892 56.8953 33.6438 59.405C33.7749 59.2267 33.8164 59.1609 33.8667 59.1033C34.2855 58.6239 34.7059 58.146 35.13 57.672C35.1342 57.6763 35.1424 57.685 35.1424 57.685Z" fill="#0052CC"/>
<path d="M42.2984 56.9454C42.2897 56.8517 42.2811 56.758 42.2893 56.6202C42.4056 56.8345 42.5051 57.093 42.6509 57.4717C42.172 57.3207 41.714 57.2193 41.2907 57.034C40.3561 56.6247 39.4367 56.1782 38.5164 55.7352C38.2736 55.6184 38.0451 55.4672 37.8192 55.317C37.5087 55.1105 36.9418 55.2982 36.6647 55.6897C36.1923 56.357 35.708 57.0153 35.1855 57.6812C35.1424 57.6851 35.1341 57.6765 35.1237 57.6267C35.1931 57.4006 35.2463 57.2038 35.3574 57.0517C35.823 56.4145 36.306 55.7907 36.7827 55.1619C37.6506 54.9392 38.3869 55.3626 39.1387 55.6831C40.143 56.1112 41.138 56.562 42.1972 57.0124C42.2816 57.0029 42.2953 56.9775 42.2984 56.9454Z" fill="#0052CC"/>
<path d="M31.6807 51.9969C31.6425 51.9966 31.6043 51.996 31.5374 51.9947C31.4045 51.5851 31.3003 51.1757 31.1895 50.7404C33.887 50.0191 36.5264 49.3134 39.2166 48.6158C38.8832 48.801 38.5138 49.0345 38.1124 49.1448C36.479 49.5939 34.8348 50.0016 33.1974 50.4356C33.0135 50.4843 32.8473 50.6035 32.5949 50.723C32.2003 50.8074 31.8836 50.8587 31.5418 50.9141C31.5924 51.3083 31.6365 51.6526 31.6807 51.9969Z" fill="#0052CC"/>
<path d="M49.3504 29.6801C48.4495 30.5169 48.007 32.3228 48.4953 33.422C48.8472 34.2142 49.3037 34.9574 49.7059 35.7662C49.007 35.498 48.7814 34.8269 48.5243 34.1855C47.9576 32.7718 47.9678 31.3385 48.7174 30.034C49.1148 29.3426 49.6963 28.658 50.6987 28.6761C50.2865 28.9958 49.8276 29.3208 49.3504 29.6801Z" fill="#0052CC"/>
<path d="M34.8525 34.7157C34.795 35.0077 34.7412 35.3005 34.6785 35.5912C34.6343 35.7958 34.5779 35.9976 34.4972 36.3194C36.1305 35.9197 37.652 35.5474 39.2263 35.1827C39.1984 35.2735 39.1301 35.4078 39.0353 35.4318C38.1844 35.6478 37.3243 35.8258 36.4763 36.0524C35.778 36.239 35.0926 36.4765 34.3304 36.7136C34.2582 35.9682 34.506 35.3796 34.8089 34.753C34.828 34.7068 34.8525 34.7157 34.8525 34.7157Z" fill="#0052CC"/>
<path d="M23.9807 40.3393C23.8728 42.2775 24.2742 44.0456 25.1254 45.7162C25.2862 46.0318 25.386 46.3802 25.5007 46.7599C25.3709 46.6807 25.2209 46.5739 25.1429 46.4267C24.2001 44.6475 23.7109 42.759 23.8498 40.7171C23.8837 40.2196 23.8642 39.7182 23.9192 39.2432C23.9769 39.3338 23.9848 39.4 23.9926 39.4662C23.9873 39.7401 23.9819 40.0139 23.9807 40.3393Z" fill="#0052CC"/>
<path d="M42.305 56.5304C42.2117 56.4515 42.0612 56.3361 42.0242 56.1903C41.5398 54.2811 41.0714 52.3677 40.6257 50.4229C41.2876 51.3918 41.2525 52.5951 41.5853 53.6886C41.8644 54.6058 42.0652 55.5483 42.305 56.5304Z" fill="#0052CC"/>
<path d="M48.8203 40.3887C48.7722 40.4694 48.6748 40.5579 48.5496 40.6717C49.7172 41.7196 51.0868 42.2151 52.5621 42.467C52.7277 42.4953 52.8899 42.5444 53.0645 42.6238C51.1874 42.7819 48.2916 41.3413 48.1942 40.3964C48.3887 40.3964 48.5799 40.3964 48.8203 40.3887Z" fill="#0052CC"/>
<path d="M38.4727 30.126C38.6104 30.0213 38.7857 29.8651 38.9874 29.8082C40.3343 29.4283 41.6868 29.0695 43.0796 28.6874C43.4065 28.6246 43.6914 28.5784 44.0246 28.5433C43.995 28.6346 43.9284 28.7654 43.8373 28.7871C42.9267 29.0034 42.008 29.1842 41.0999 29.4102C40.2356 29.6252 39.3812 29.8821 38.4727 30.126Z" fill="#0052CC"/>
<path d="M42.7162 45.956C42.6053 45.953 42.5426 45.9489 42.4327 45.9398C42.9498 45.7488 43.5073 45.5372 44.0793 45.3816C45.3777 45.0282 46.6833 44.7024 48.0375 44.3707C47.7404 44.5368 47.4044 44.7443 47.0404 44.8495C45.8954 45.1804 44.7406 45.4755 43.5881 45.7783C43.3166 45.8496 43.0391 45.8967 42.7162 45.956Z" fill="#0052CC"/>
<path d="M43.9015 30.3736C43.4712 30.5627 43.001 30.7827 42.5087 30.9176C41.1741 31.2835 39.8302 31.6133 38.4375 31.9489C38.7023 31.8008 39.0089 31.6205 39.3387 31.5282C40.7807 31.1244 42.2294 30.7455 43.6764 30.3607C43.7307 30.3462 43.7929 30.3633 43.9015 30.3736Z" fill="#0052CC"/>
<path d="M30.463 49.3268C30.9477 49.1163 31.4831 48.9131 32.0512 48.6833C33.1206 48.3918 34.1568 48.1256 35.194 47.8634C35.3828 47.8156 35.5754 47.7843 35.8181 47.7521C35.5196 47.9196 35.182 48.1276 34.8164 48.2321C33.6812 48.5565 32.536 48.844 31.3933 49.1402C31.1027 49.2156 30.807 49.27 30.463 49.3268Z" fill="#0052CC"/>
<path d="M28.6566 23.5131C28.763 23.4831 28.8919 23.4953 29.0678 23.5193C29.6341 23.7612 30.1408 24.0321 30.6776 24.204C30.9439 24.2893 31.2839 24.2538 31.5583 24.166C32.1894 23.9639 32.8007 23.6963 33.4692 23.4627C32.8309 23.7952 32.1436 24.1209 31.4556 24.4448C31.3045 24.516 31.1504 24.5806 31.0272 24.6352C30.245 24.2755 29.462 23.9154 28.6566 23.5131Z" fill="#0052CC"/>
<path d="M35.9951 47.7529C36.0891 47.6508 36.2339 47.5562 36.377 47.459C36.3893 47.4506 36.3904 47.4246 36.3456 47.5513C35.5491 46.4754 34.8026 45.4673 34.0676 44.4147C34.4776 44.8878 34.8415 45.4394 35.2836 45.9141C35.8212 46.4915 36.4247 47.0041 37.0477 47.5898C36.6924 47.65 36.3689 47.7049 35.9951 47.7529Z" fill="#0052CC"/>
<path d="M4.2439 22.6973C4.22211 22.6386 4.22324 22.6097 4.22737 22.5375C5.27489 23.0049 5.88095 23.8113 5.86902 25.0427C5.86308 25.655 5.87067 26.2676 5.86289 26.9293C5.808 26.9788 5.76235 26.979 5.68256 26.9798C5.61354 26.6896 5.4839 26.3693 5.55954 26.1131C5.9747 24.7068 5.51167 23.663 4.39451 22.8505C4.34728 22.8162 4.30917 22.7686 4.2439 22.6973Z" fill="#0052CC"/>
<path d="M18.9062 19.4197C19.2564 19.4629 19.6263 19.5109 19.9581 19.6529C20.9397 20.073 21.9063 20.5303 22.9018 21.0074C22.2324 20.7719 21.5429 20.4934 20.8464 20.2349C20.2528 20.0145 19.6503 19.8192 19.0542 19.6058C18.997 19.5854 18.9567 19.5148 18.9062 19.4197Z" fill="#0052CC"/>
<path d="M45.6993 37.783C45.9394 38.0005 46.211 38.2416 46.4199 38.5306C46.6445 38.8412 46.8678 38.971 47.2579 38.8601C47.8924 38.6797 48.5429 38.5593 49.2211 38.4365C48.5017 38.7015 47.7567 38.9836 46.9887 39.16C46.7724 39.2097 46.4216 39.0115 46.252 38.8168C46.0111 38.5406 45.8808 38.1623 45.6993 37.783Z" fill="#0052CC"/>
<path d="M38.5218 23.4255C38.247 23.5095 38.0064 23.5649 37.7164 23.6126C37.9253 23.4539 38.1716 23.2732 38.444 23.1571C39.4138 22.7438 40.3915 22.35 41.3691 21.9565C41.4709 21.9155 41.592 21.9252 41.7488 21.9158C40.9082 22.3202 40.0225 22.7193 39.1377 23.1204C38.9423 23.209 38.7499 23.3045 38.5218 23.4255Z" fill="#0052CC"/>
<path d="M13.9843 7.44361C13.5601 7.57672 13.1653 7.68211 12.7233 7.77366C12.9084 7.62279 13.1294 7.45689 13.3752 7.35378C14.4195 6.91579 15.4712 6.49643 16.5707 6.07733C16.2059 6.31759 15.7972 6.56436 15.3736 6.78025C14.9277 7.0075 14.4676 7.20524 13.9843 7.44361Z" fill="#0052CC"/>
<path d="M30.3351 26.0944C29.482 25.8129 28.6093 25.4956 27.7465 25.152C27.4109 25.0185 27.0978 24.8256 26.7612 24.6182C27.6334 24.9204 28.5212 25.2578 29.4029 25.6113C29.716 25.7368 30.0144 25.9014 30.3351 26.0944Z" fill="#0052CC"/>
<path d="M49.357 37.6816C49.043 37.5364 48.6441 37.4155 48.4289 37.1418C47.9736 36.5625 47.6142 35.9036 47.2279 35.2321C47.3177 35.2249 47.4435 35.2443 47.4653 35.3039C47.8335 36.3083 48.5126 37.0415 49.357 37.6816Z" fill="#0052CC"/>
<path d="M23.6164 23.2961C22.809 23.0167 21.9997 22.6911 21.1815 22.3278C21.4775 22.3622 21.7978 22.3955 22.084 22.5151C22.6049 22.733 23.1055 23.0022 23.6164 23.2961Z" fill="#0052CC"/>
<path d="M10.6632 8.61975C10.4958 8.77952 10.297 8.97404 10.0604 9.07442C9.44501 9.33548 8.81307 9.55521 8.14199 9.76741C8.09622 9.74339 8.09534 9.69816 8.09534 9.69816C8.93507 9.33598 9.7748 8.97379 10.6632 8.61975Z" fill="#0052CC"/>
<path d="M42.2446 36.1752C41.3287 36.4743 40.3634 36.7661 39.3651 37.0341C40.2865 36.7295 41.2409 36.4486 42.2446 36.1752Z" fill="#0052CC"/>
<path d="M36.6157 37.7449C35.8315 38.0286 34.9971 38.3051 34.1166 38.5905C34.082 38.5131 34.0766 38.3586 34.1074 38.3506C34.9245 38.1371 35.7453 37.9387 36.6157 37.7449Z" fill="#0052CC"/>
<path d="M36.1159 24.2186C35.8872 24.3946 35.6333 24.6084 35.3428 24.7287C34.732 24.9814 34.102 25.1849 33.4333 25.4077C34.2826 25.0091 35.1784 24.6116 36.1159 24.2186Z" fill="#0052CC"/>
<path d="M27.8378 49.3851C28.6429 49.798 29.4412 49.3722 30.2971 49.3201C30.1267 49.4529 29.9152 49.6213 29.6765 49.6903C29.3026 49.7982 28.905 49.9114 28.5279 49.8819C28.2892 49.8633 28.0694 49.5894 27.8378 49.3851Z" fill="#0052CC"/>
<path d="M52.5685 39.4272C52.4259 39.4431 52.3275 39.4458 52.1801 39.4411C52.521 39.2683 52.9021 39.0728 53.3035 38.9453C53.7847 38.7924 54.2834 38.6975 54.8222 38.574C54.7138 38.6847 54.5727 38.8479 54.3989 38.9041C53.8098 39.0945 53.2091 39.2471 52.5685 39.4272Z" fill="#0052CC"/>
<path d="M44.0676 38.1681C43.79 37.715 43.4895 37.2254 43.2323 36.7128C43.0666 36.3826 42.9532 36.0352 42.4344 36.1747C42.5936 36.057 42.803 35.9467 43.0766 35.8026C43.3989 36.5603 43.731 37.3411 44.0676 38.1681Z" fill="#0052CC"/>
<path d="M40.6461 50.1482C40.4941 49.864 40.2813 49.5397 40.2225 49.1882C40.1436 48.7172 39.9477 48.5538 39.4794 48.6372C39.7028 48.4717 39.9579 48.3324 40.248 48.174C40.3938 48.8644 40.5238 49.4802 40.6461 50.1482Z" fill="#0052CC"/>
<path d="M32.9003 42.0087C32.9257 41.9615 32.9463 41.9616 32.9978 41.9601C33.377 42.7335 33.7252 43.5084 34.0784 44.3297C33.9393 44.2619 33.728 44.1784 33.663 44.028C33.3837 43.3813 33.1475 42.715 32.9003 42.0087Z" fill="#0052CC"/>
<path d="M19.0352 21.4035C18.1657 21.0382 17.2961 20.6729 16.4119 20.2658C17.2492 20.5785 18.1012 20.933 18.9938 21.3258C19.0344 21.3642 19.0352 21.4035 19.0352 21.4035Z" fill="#0052CC"/>
<path d="M39.0945 37.0172C38.7562 37.2026 38.3783 37.4157 37.9752 37.5459C37.6133 37.6628 37.2236 37.6884 36.793 37.7473C36.8203 37.6578 36.8887 37.5251 36.9834 37.5007C37.6673 37.3245 38.3564 37.1701 39.0945 37.0172Z" fill="#0052CC"/>
<path d="M54.0302 37.11C54.3692 36.8276 54.8368 36.8848 55.1217 37.2432C55.4507 37.657 55.3869 38.1649 54.9083 38.5825C54.8694 38.5168 54.8601 38.4511 54.8824 38.4001C55.2665 37.522 55.0207 37.1293 54.0302 37.11Z" fill="#0052CC"/>
<path d="M46.5756 31.4669C46.6238 30.9272 46.7208 30.3768 46.8269 29.7749C46.6914 29.7855 46.5486 29.7967 46.3783 29.7958C46.6281 29.6741 46.9055 29.5646 47.2808 29.4164C47.0259 30.2085 46.8252 30.8324 46.5756 31.4669Z" fill="#0052CC"/>
<path d="M52.0291 39.4336C51.2686 39.69 50.4565 39.9388 49.618 40.1574C50.3869 39.8936 51.1822 39.6597 52.0291 39.4336Z" fill="#0052CC"/>
<path d="M47.4209 17.5565C48.1371 17.2212 48.8869 16.9028 49.6612 16.6049C49.0211 17.1381 48.2696 17.4347 47.4209 17.5565Z" fill="#0052CC"/>
<path d="M24.6604 21.8203C25.3828 22.0735 26.1282 22.3688 26.8963 22.6987C26.1738 22.4431 25.4286 22.1527 24.6604 21.8203Z" fill="#0052CC"/>
<path d="M39.3969 35.1876C39.5299 35.0919 39.7137 35.0039 39.926 34.8908C40.5156 34.7661 41.0768 34.6666 41.6802 34.5832C40.9641 34.7981 40.2059 34.9967 39.3969 35.1876Z" fill="#0052CC"/>
<path d="M26.2043 47.7692C26.7594 48.2339 27.307 48.7452 27.8468 49.3007C27.2916 48.8352 26.7443 48.3254 26.2043 47.7692Z" fill="#0052CC"/>
<path d="M20.6405 4.39221C20.0073 4.70942 19.3267 5.01807 18.6023 5.32946C18.6998 5.21109 18.8231 5.04416 18.9855 4.97728C19.5137 4.75971 20.0561 4.57873 20.6405 4.39221Z" fill="#0052CC"/>
<path d="M18.4863 5.35486C17.931 5.60267 17.3306 5.85268 16.6785 6.09283C16.654 6.01257 16.6664 5.89324 16.7105 5.87921C17.2848 5.69646 17.8635 5.52864 18.4863 5.35486Z" fill="#0052CC"/>
<path d="M12.6356 7.76074C12.0768 8.04846 11.4718 8.34026 10.8174 8.62553C10.9084 8.49503 11.0304 8.32298 11.1932 8.25627C11.6496 8.06919 12.1229 7.92559 12.6356 7.76074Z" fill="#0052CC"/>
<path d="M35.9702 30.6168C36.3035 30.5521 36.6125 30.5168 36.9589 30.4992C36.3556 30.7079 35.7149 30.8988 35.0212 31.083C35.2941 30.9329 35.62 30.7895 35.9702 30.6168Z" fill="#0052CC"/>
<path d="M42.1178 34.2519C42.4728 34.1662 42.8248 34.0345 43.1838 34.0091C43.4713 33.9888 43.7673 34.0978 44.059 34.1943C43.4113 34.0778 42.8067 34.3027 42.1483 34.4184C42.1075 34.3378 42.1127 34.2949 42.1178 34.2519Z" fill="#0052CC"/>
<path d="M48.8392 27.1383C48.8836 27.1826 48.8825 27.2224 48.8808 27.2923C48.2897 27.4676 47.699 27.6128 47.0699 27.7796C47.2685 27.6735 47.4953 27.5163 47.7451 27.4255C48.0855 27.3018 48.4433 27.2287 48.8392 27.1383Z" fill="#0052CC"/>
<path d="M27.0028 22.7918C27.5062 22.9575 28.023 23.1694 28.5542 23.4201C28.0511 23.252 27.5337 23.045 27.0028 22.7918Z" fill="#0052CC"/>
<path d="M36.694 32.501C36.6503 32.4549 36.6525 32.4156 36.6554 32.3468C37.1772 32.1899 37.6981 32.0626 38.2704 31.943C38.2109 32.0326 38.0998 32.1144 37.959 32.2166C37.5328 32.3272 37.1364 32.4176 36.694 32.501Z" fill="#0052CC"/>
<path d="M58.6819 40.0368C58.677 39.9048 58.7165 39.7699 58.764 39.5922C58.9813 39.1204 59.1906 38.6915 59.4355 38.2394C59.4179 38.9067 59.2059 39.5283 58.6819 40.0368Z" fill="#0052CC"/>
<path d="M48.9012 44.2523C49.0955 44.1163 49.3474 43.9997 49.5806 43.8517C49.6307 43.8199 49.6127 43.6747 49.6042 43.5533C49.8243 43.5758 50.0663 43.6268 50.3083 43.6778C50.3148 43.7485 50.3213 43.8192 50.3278 43.8899C49.8693 44.0134 49.4107 44.1369 48.9012 44.2523Z" fill="#0052CC"/>
<path d="M22.4685 3.67029C21.9666 3.91375 21.4202 4.15452 20.8282 4.38726C20.8557 4.28744 20.9117 4.14484 21.0043 4.1124C21.4722 3.94838 21.9497 3.81302 22.4685 3.67029Z" fill="#0052CC"/>
<path d="M49.5934 43.4837C49.1205 43.2802 48.6425 43.0309 48.1497 42.7418C48.6194 42.9473 49.1038 43.1925 49.5934 43.4837Z" fill="#0052CC"/>
<path d="M24.0287 39.4414C23.9848 39.4005 23.9769 39.3344 23.9655 39.2185C24.0333 38.7603 24.1048 38.3519 24.2297 37.8985C24.324 37.8511 24.3647 37.8487 24.4055 37.8463C24.2919 38.3696 24.1784 38.8929 24.0287 39.4414Z" fill="#0052CC"/>
<path d="M56.651 29.3582C56.2296 29.1467 55.7922 28.8921 55.3328 28.6019C55.8131 28.7019 56.349 28.7749 56.651 29.3582Z" fill="#0052CC"/>
<path d="M49.9301 36.0938C50.3929 36.3071 50.8576 36.5655 51.3351 36.8641C50.8759 36.6491 50.4039 36.394 49.9301 36.0938Z" fill="#0052CC"/>
<path d="M44.1726 34.4016C44.7962 34.5571 44.6579 35.159 44.7674 35.6428C44.5518 35.2617 44.3635 34.8546 44.1726 34.4016Z" fill="#0052CC"/>
<path d="M19.0602 21.4377C19.0353 21.4035 19.0345 21.3642 19.0342 21.3445C19.4662 21.4897 19.8985 21.6545 20.3479 21.8658C19.9383 21.7654 19.5117 21.6187 19.0602 21.4377Z" fill="#0052CC"/>
<path d="M58.6247 31.9168C58.3453 31.5376 58.0739 31.1105 57.8082 30.6393C58.4765 30.7549 58.3226 31.4695 58.6247 31.9168Z" fill="#0052CC"/>
<path d="M37.5981 23.6004C37.231 23.8032 36.8143 23.9985 36.3507 24.1898C36.7186 23.9882 37.1335 23.7905 37.5981 23.6004Z" fill="#0052CC"/>
<path d="M51.3951 15.884C51.7319 15.6944 52.1064 15.5131 52.5061 15.3621C52.1653 15.5591 51.799 15.7257 51.3951 15.884Z" fill="#0052CC"/>
<path d="M40.9965 4.21238C40.5104 4.07841 40.0037 3.90487 39.4916 3.68787C39.9828 3.82054 40.4794 3.99667 40.9965 4.21238Z" fill="#0052CC"/>
<path d="M37.2295 30.4648C37.5659 30.338 37.9486 30.2182 38.3803 30.1125C38.0448 30.2417 37.6603 30.3567 37.2295 30.4648Z" fill="#0052CC"/>
<path d="M17.7383 18.7623C18.1268 18.9391 18.5153 19.1159 18.9073 19.3349C18.7019 19.2966 18.493 19.2162 18.2146 19.0928C18.0443 19.0377 17.9437 19.0256 17.843 19.0135C17.843 19.0135 17.8529 19.0103 17.8406 18.9814C17.7983 18.8891 17.7683 18.8257 17.7383 18.7623Z" fill="#0052CC"/>
<path d="M25.606 46.9681C25.8067 47.146 26.0111 47.3679 26.2106 47.6382C26.007 47.4617 25.8083 47.237 25.606 46.9681Z" fill="#0052CC"/>
<path d="M33.6305 23.4667C33.884 23.2955 34.1838 23.1327 34.5058 22.9974C34.2442 23.175 33.9605 23.325 33.6305 23.4667Z" fill="#0052CC"/>
<path d="M48.0806 42.6528C47.8035 42.4833 47.5091 42.2715 47.2034 42.0182C47.4824 42.188 47.7729 42.3993 48.0806 42.6528Z" fill="#0052CC"/>
<path d="M23.0077 21.0984C23.2531 21.14 23.5128 21.2267 23.8088 21.3663C23.8462 21.4522 23.8468 21.485 23.8471 21.5179C23.5721 21.3931 23.2971 21.2683 23.0077 21.0984Z" fill="#0052CC"/>
<path d="M31.5377 26.2597C31.1985 26.6044 30.8247 26.4414 30.4292 26.1862C30.7666 26.1863 31.1273 26.2235 31.5377 26.2597Z" fill="#0052CC"/>
<path d="M44.8066 18.7417C44.846 18.3061 45.158 18.2583 45.5585 18.2821C45.3537 18.4357 45.1013 18.5871 44.8066 18.7417Z" fill="#0052CC"/>
<path d="M47.2408 35.1469C47.1119 34.9293 46.9793 34.6666 46.8707 34.3746C47.0089 34.5975 47.123 34.8497 47.2408 35.1469Z" fill="#0052CC"/>
<path d="M46.3015 41.0684C46.1013 40.9375 45.8989 40.7638 45.7041 40.5463C45.9076 40.6769 46.1034 40.8512 46.3015 41.0684Z" fill="#0052CC"/>
<path d="M23.8875 21.5363C23.8468 21.4844 23.8462 21.4515 23.8438 21.3949C24.0775 21.4772 24.3126 21.5833 24.5605 21.7281C24.3581 21.6964 24.143 21.626 23.8875 21.5363Z" fill="#0052CC"/>
<path d="M47.1375 41.9288C46.9405 41.7916 46.7258 41.6139 46.5236 41.3929C46.7306 41.5292 46.9251 41.7089 47.1375 41.9288Z" fill="#0052CC"/>
<path d="M44.1212 28.5577C44.2114 28.2001 44.435 28.1176 44.763 28.3756C44.5708 28.4622 44.3689 28.5083 44.1212 28.5577Z" fill="#0052CC"/>
<path d="M57.5831 30.1937C57.38 30.0619 57.1743 29.8871 56.9813 29.6701C57.1896 29.8022 57.3851 29.9765 57.5831 30.1937Z" fill="#0052CC"/>
<path d="M42.0693 34.2469C42.1127 34.2952 42.1076 34.3381 42.1031 34.4136C42.0059 34.4965 41.908 34.5467 41.7686 34.6006C41.8249 34.4832 41.9229 34.3624 42.0693 34.2469Z" fill="#0052CC"/>
<path d="M21.0093 22.2173C20.8733 22.2405 20.7187 22.2286 20.5194 22.2052C20.4677 22.1562 20.4597 22.119 20.4766 22.0523C20.5229 22.0215 20.5435 22.0205 20.5641 22.0195C20.7063 22.0738 20.8485 22.128 21.0093 22.2173Z" fill="#0052CC"/>
<path d="M44.7048 30.1541C44.5374 30.2175 44.3321 30.302 44.0784 30.3773C44.2423 30.3038 44.4547 30.2395 44.7048 30.1541Z" fill="#0052CC"/>
<path d="M41.4773 4.45749C41.345 4.44007 41.1954 4.3835 41.0289 4.28729C41.1613 4.30455 41.3107 4.36145 41.4773 4.45749Z" fill="#0052CC"/>
<path d="M48.2261 44.3672C48.3285 44.3093 48.4764 44.2583 48.6507 44.2318C48.5418 44.2956 48.4067 44.3348 48.2261 44.3672Z" fill="#0052CC"/>
<path d="M49.3937 40.1976C49.2697 40.2442 49.1126 40.3107 48.9119 40.3817C49.0323 40.3301 49.1965 40.2738 49.3937 40.1976Z" fill="#0052CC"/>
<path d="M57.8165 30.5625C57.732 30.5077 57.6434 30.4122 57.5682 30.2748C57.6586 30.3292 57.7355 30.4255 57.8165 30.5625Z" fill="#0052CC"/>
<path d="M41.9457 4.70298C41.8446 4.69402 41.7276 4.64736 41.6005 4.56036C41.7034 4.56844 41.8166 4.61686 41.9457 4.70298Z" fill="#0052CC"/>
<path d="M55.6272 42.335C55.6793 42.2559 55.7702 42.1719 55.9043 42.0891C55.8536 42.1702 55.7598 42.2502 55.6272 42.335Z" fill="#0052CC"/>
<path d="M22.8493 3.44592C22.7981 3.49524 22.7182 3.5585 22.6042 3.62276C22.6536 3.56913 22.7371 3.5145 22.8493 3.44592Z" fill="#0052CC"/>
<path d="M45.0428 28.3167C44.9955 28.2627 44.9757 28.2026 44.9559 28.1426C45.008 28.171 45.06 28.1994 45.1182 28.2609C45.1245 28.294 45.0704 28.3106 45.0428 28.3167Z" fill="#0052CC"/>
<path d="M55.2098 28.5055C55.1225 28.4917 55.02 28.4477 54.9115 28.3682C55.0018 28.3802 55.0982 28.4277 55.2098 28.5055Z" fill="#0052CC"/>
<path d="M56.9855 29.5931C56.9177 29.6136 56.8377 29.5951 56.7526 29.53C56.8227 29.5069 56.8981 29.5305 56.9855 29.5931Z" fill="#0052CC"/>
<path d="M49.7014 35.8352C49.734 35.8213 49.7747 35.8394 49.8162 35.8944C49.7812 35.9099 49.7453 35.8886 49.7014 35.8352Z" fill="#0052CC"/>
<path d="M17.5954 18.7508C17.6202 18.7824 17.6197 18.8053 17.6175 18.8623C17.597 18.8902 17.5782 18.884 17.531 18.8687C17.5047 18.8368 17.5068 18.8139 17.5145 18.7566C17.5201 18.7222 17.57 18.7421 17.5954 18.7508Z" fill="#0052CC"/>
<path d="M20.5543 21.9828C20.5435 22.0207 20.5229 22.0217 20.4714 22.024C20.4405 22.0253 20.4143 21.975 20.4098 21.9469C20.4516 21.9278 20.498 21.9369 20.5543 21.9828Z" fill="#0052CC"/>
<path d="M44.0594 34.266C44.0936 34.2511 44.1347 34.2686 44.1757 34.3235C44.1391 34.34 44.1028 34.3193 44.0594 34.266Z" fill="#0052CC"/>
<path d="M49.8168 35.9584C49.853 35.9422 49.8954 35.9591 49.9355 36.0142C49.8964 36.0322 49.8597 36.0118 49.8168 35.9584Z" fill="#0052CC"/>
<path d="M51.3463 36.9076C51.3528 36.9139 51.3744 36.935 51.4168 36.9659C51.3905 36.9871 51.365 36.9694 51.3463 36.9076Z" fill="#0052CC"/>
<path d="M25.4916 46.8342C25.5259 46.8187 25.5673 46.8357 25.6081 46.8901C25.5712 46.9072 25.5349 46.8869 25.4916 46.8342Z" fill="#0052CC"/>
<path d="M45.6147 37.6678C45.6433 37.6524 45.666 37.6737 45.695 37.7238C45.6728 37.7401 45.6419 37.7241 45.6147 37.6678Z" fill="#0052CC"/>
<path d="M49.4576 37.8361C49.4132 37.8453 49.3764 37.8193 49.3478 37.7589C49.3924 37.75 49.4288 37.7755 49.4576 37.8361Z" fill="#0052CC"/>
<path d="M59.4729 38.2173C59.4863 38.2213 59.5081 38.2017 59.5324 38.1498C59.5498 38.1737 59.5319 38.199 59.4729 38.2173Z" fill="#0052CC"/>
<path d="M45.4549 40.1143C45.4278 40.1277 45.4086 40.1111 45.3866 40.0708C45.4161 40.0411 45.4424 40.0534 45.4549 40.1143Z" fill="#0052CC"/>
<path d="M58.5545 40.1522C58.5421 40.1225 58.5595 40.0822 58.6101 40.0365C58.6236 40.068 58.6039 40.1048 58.5545 40.1522Z" fill="#0052CC"/>
<path d="M45.5895 40.3624C45.5681 40.3665 45.5366 40.3386 45.4897 40.2823C45.5094 40.2793 45.5445 40.3048 45.5895 40.3624Z" fill="#0052CC"/>
<path d="M45.7075 40.4803C45.6807 40.4899 45.6448 40.4672 45.5992 40.4125C45.6258 40.4029 45.6621 40.4254 45.7075 40.4803Z" fill="#0052CC"/>
<path d="M46.415 41.2012C46.38 41.2169 46.3382 41.2 46.2977 41.1454C46.3354 41.128 46.3718 41.1483 46.415 41.2012Z" fill="#0052CC"/>
<path d="M46.5326 41.3219C46.4976 41.3376 46.4559 41.3207 46.4154 41.266C46.453 41.2486 46.4895 41.269 46.5326 41.3219Z" fill="#0052CC"/>
<path d="M24.5537 33.7012C22.8608 34.2341 21.1681 34.715 19.4297 35.1937C18.9836 34.667 18.622 34.1039 18.1736 33.6271C17.5359 32.9492 16.8112 32.3583 16.1667 31.6866C15.4734 30.964 14.8434 30.1776 14.1584 29.446C13.8481 29.1146 13.4719 28.8484 13.0831 28.5512C13.0366 26.3319 13.0325 24.114 13.0333 21.8397C13.3573 22.059 13.6995 22.3114 13.9916 22.6148C15.2133 23.8838 16.4077 25.1808 17.6359 26.4429C18.6594 27.4945 19.7195 28.5083 20.7568 29.5458C21.337 30.1261 21.8862 30.7406 22.485 31.2994C22.7497 31.5465 23.1098 31.6826 23.4141 31.8885C24.0338 32.3078 24.6344 32.7476 24.5537 33.7012Z" fill="#0052CC"/>
<path d="M26.4373 35.3876C28.7078 34.7317 30.9788 34.1175 33.3535 33.4752C32.2682 36.0882 32.0122 38.6992 32.662 41.4314C32.3294 41.6354 32.1297 41.5002 31.8766 41.2382C30.5747 39.8903 29.2217 38.5946 27.9215 37.2451C27.3822 36.6854 26.9297 36.0372 26.4373 35.3876Z" fill="#0052CC"/>
<path d="M31.7066 52.0366C31.6366 51.6522 31.5924 51.3079 31.5419 50.9137C31.8837 50.8583 32.2004 50.807 32.561 50.751C33.2284 51.3713 33.8615 51.9865 34.4726 52.6239C35.2469 53.4317 36.0034 54.2576 36.7752 55.1186C36.3061 55.7902 35.8231 56.414 35.3575 57.0512C35.2464 57.2033 35.1932 57.4002 35.1196 57.6219C34.7059 58.1457 34.2855 58.6236 33.8667 59.103C33.8164 59.1606 33.775 59.2263 33.6438 59.4047C32.9892 56.8949 32.3608 54.4858 31.7066 52.0366Z" fill="#0052CC"/>
<path d="M42.2776 56.9619C42.2954 56.9777 42.2817 57.0032 42.2457 57.0243C42.2338 57.0265 42.2568 56.9782 42.2776 56.9619Z" fill="#0052CC"/>
</svg>
